<svg xmlns="http://www.w3.org/2000/svg" viewBox="0 0 748.56 205.01"><defs><style>.cls-1,.cls-4,.cls-6{fill:#022950;}.cls-2{fill:#4ec6ec;}.cls-3{fill:#0297c6;}.cls-4{font-size:91.37px;font-family:Montserrat-ExtraBold, Montserrat;font-weight:700;}.cls-5{letter-spacing:-0.03em;}.cls-6{font-size:32px;font-family:Montserrat-Light, Montserrat;letter-spacing:0.9em;}.cls-7{letter-spacing:0.92em;}.cls-8{letter-spacing:0.87em;}.cls-9{letter-spacing:0.92em;}</style></defs><title>Asset 1</title><g id="Layer_2" data-name="Layer 2"><g id="Layer_1-2" data-name="Layer 1"><path class="cls-1" d="M41.66,184.75A102.3,102.3,0,0,1,102.51.21a106.21,106.21,0,0,1,67,24.62L125.86,77c-6.36-5.32-15.52-8.76-23.35-8.76a34.25,34.25,0,0,0-20.34,61.81Z"/><path class="cls-2" d="M102.51,204.8a102.3,102.3,0,1,1,67.71-179l-28.27,32a59.6,59.6,0,1,0-1,90.26l27.54,32.63A102.38,102.38,0,0,1,102.51,204.8Z"/><path class="cls-3" d="M102.51,205A102.51,102.51,0,1,1,170.19,25.69L157.5,40.29a83.11,83.11,0,1,0-55,145.38,81.53,81.53,0,0,0,53.38-19.73l12.52,14.75A100.64,100.64,0,0,1,102.51,205Z"/><text class="cls-4" transform="translate(190.99 108.51)">CUS<tspan class="cls-5" x="190.96" y="0">T</tspan><tspan x="245.33" y="0">OMER</tspan></text><text class="cls-6" transform="translate(193.49 153.67)">C<tspan class="cls-7" x="51.3" y="0">ONSUL</tspan><tspan class="cls-8" x="310.43" y="0">T</tspan><tspan class="cls-9" x="356.09" y="0">ORIA</tspan></text></g></g></svg>